<?xml version="1.0" encoding="UTF-8" standalone="no"?><!DOCTYPE svg PUBLIC "-//W3C//DTD SVG 1.1//EN" "http://www.w3.org/Graphics/SVG/1.1/DTD/svg11.dtd"><svg width="100%" height="100%" viewBox="0 0 1362 360" version="1.1" xmlns="http://www.w3.org/2000/svg" xmlns:xlink="http://www.w3.org/1999/xlink" xml:space="preserve" style="fill-rule:evenodd;clip-rule:evenodd;stroke-linejoin:round;stroke-miterlimit:1.41421;"><rect id="logoTextOnDark" x="0.192" y="0.141" width="1361.68" height="359.592" style="fill:none;"/><g id="tissue"><path d="M66.421,87.981c-0.93,-0.008 -1.855,-0.042 -2.777,-0.142c-2.507,-0.272 -4.996,-0.941 -7.214,-2.161c-1.332,-0.732 -2.558,-1.638 -3.638,-2.709c-4.087,-4.054 -5.732,-10.115 -5.072,-15.748c0.136,-1.16 0.369,-2.311 0.707,-3.429c0.739,-2.446 1.948,-4.758 3.646,-6.677c1.038,-1.173 2.243,-2.194 3.575,-3.018c1.547,-0.958 3.252,-1.648 5.015,-2.091c1.878,-0.471 3.809,-0.658 5.743,-0.666c62.293,0 124.586,-0.261 186.879,0.001c1.969,0.033 3.939,0.24 5.848,0.738c1.513,0.395 2.985,0.955 4.355,1.711c1.657,0.914 3.161,2.109 4.411,3.532c5.513,6.281 5.923,16.34 1.179,23.171c-0.444,0.639 -0.933,1.247 -1.461,1.818c-1.247,1.347 -2.723,2.466 -4.339,3.333c-2.042,1.095 -4.304,1.76 -6.592,2.083c-1.133,0.16 -2.272,0.232 -3.416,0.251c-21.931,0.185 -43.863,0.003 -65.795,0.003c-0.278,0.017 -0.558,0.017 -0.834,0.051c-0.554,0.067 -1.098,0.201 -1.62,0.399c-1.839,0.697 -3.321,2.179 -4.018,4.018c-0.198,0.522 -0.332,1.066 -0.399,1.62c-0.034,0.276 -0.034,0.556 -0.051,0.834l0,199.164c-0.009,2.19 -0.268,4.366 -0.894,6.468c-0.914,3.066 -2.674,5.839 -5.089,7.939c-3.97,3.451 -9.384,4.963 -14.582,4.684c-1.298,-0.07 -2.593,-0.256 -3.857,-0.562c-1.455,-0.352 -2.875,-0.853 -4.215,-1.523c-2.007,-1.003 -3.825,-2.373 -5.294,-4.073c-0.776,-0.898 -1.45,-1.883 -2.012,-2.928c-1.094,-2.036 -1.753,-4.29 -2.056,-6.576c-0.122,-0.916 -0.185,-1.836 -0.212,-2.76c-1.129,-66.601 -0.007,-133.222 -0.007,-199.833c-0.017,-0.278 -0.017,-0.558 -0.051,-0.834c-0.067,-0.554 -0.201,-1.098 -0.399,-1.62c-0.697,-1.839 -2.179,-3.321 -4.017,-4.018c-0.522,-0.198 -1.066,-0.332 -1.62,-0.399c-0.276,-0.034 -0.555,-0.034 -0.835,-0.051l-68.992,0Z" style="fill:#dcb044;"/><path d="M325.994,51.487c-0.866,0.014 -1.73,0.064 -2.59,0.169c-4.642,0.567 -9.242,2.5 -12.432,5.999c-0.567,0.622 -1.082,1.291 -1.541,1.996c-0.59,0.908 -1.079,1.883 -1.465,2.894c-0.486,1.275 -0.811,2.611 -0.986,3.964c-0.106,0.822 -0.154,1.646 -0.173,2.474c-0.343,75.368 -1.66,150.755 0.007,226.104c0.073,2.727 0.601,5.438 1.801,7.901c1.242,2.548 3.211,4.673 5.579,6.215c1.419,0.924 2.972,1.625 4.58,2.146c1.536,0.497 3.133,0.805 4.739,0.954c1.019,0.095 2.042,0.121 3.065,0.083c4.86,-0.178 9.805,-1.859 13.386,-5.228c2.07,-1.947 3.554,-4.441 4.333,-7.171c0.484,-1.695 0.694,-3.448 0.726,-5.207c0.339,-75.374 1.329,-150.761 -0.005,-226.124c-0.071,-2.258 -0.421,-4.514 -1.248,-6.626c-0.478,-1.22 -1.103,-2.378 -1.87,-3.439c-0.444,-0.614 -0.938,-1.193 -1.471,-1.732c-0.486,-0.492 -1.006,-0.951 -1.553,-1.374c-3.454,-2.674 -7.838,-3.898 -12.162,-3.995c-0.24,-0.003 -0.48,-0.005 -0.72,-0.003Z" style="fill:#dcb044;"/><path d="M487.688,39.966c-3.428,0.031 -6.853,0.161 -10.272,0.426c-11.65,0.904 -23.235,3.232 -34.212,7.271c-9.458,3.481 -18.506,8.272 -26.346,14.64c-4.173,3.39 -7.993,7.224 -11.284,11.48c-2.525,3.266 -4.732,6.773 -6.574,10.468c-2.72,5.456 -4.601,11.313 -5.668,17.312c-0.235,1.323 -0.438,2.655 -0.59,3.99c-0.09,0.801 -0.164,1.605 -0.234,2.409c-0.153,1.757 -0.261,3.518 -0.319,5.281c-0.223,6.772 0.276,13.598 1.897,20.191c0.696,2.833 1.601,5.615 2.721,8.309c1.618,3.892 3.707,7.592 6.201,10.99c3.03,4.127 6.632,7.816 10.595,11.052c4.415,3.606 9.241,6.679 14.264,9.365c5.932,3.173 12.137,5.813 18.439,8.155c7.52,2.794 15.193,5.16 22.896,7.394c6.179,1.793 12.382,3.499 18.573,5.251c1.821,0.519 3.641,1.043 5.459,1.571c4.132,1.216 8.253,2.466 12.337,3.835c3.349,1.122 6.674,2.319 9.95,3.642c1.839,0.743 3.662,1.525 5.461,2.359c1.256,0.581 2.499,1.187 3.728,1.823c6.508,3.37 12.72,7.625 17.376,13.357c0.733,0.902 1.424,1.84 2.067,2.808c0.72,1.085 1.382,2.211 1.974,3.371c0.9,1.764 1.647,3.604 2.223,5.499c0.512,1.683 0.89,3.402 1.145,5.143c0.081,0.552 0.147,1.105 0.203,1.66c0.038,0.378 0.07,0.682 0.067,1.082c-0.003,0.454 -0.067,0.956 -0.12,1.407c-0.113,0.962 -0.25,1.921 -0.409,2.876c-0.565,3.395 -1.44,6.738 -2.665,9.956c-1.954,5.135 -4.845,9.907 -8.572,13.95c-4.646,5.041 -10.485,8.854 -16.808,11.453c-4.712,1.936 -9.666,3.237 -14.689,4.052c-5.201,0.844 -10.477,1.174 -15.743,1.134c-8.028,-0.061 -16.038,-0.991 -23.915,-2.514c-4.88,-0.944 -9.715,-2.133 -14.481,-3.543c-4.009,-1.186 -7.974,-2.525 -11.874,-4.031c-7.733,-2.986 -15.253,-6.597 -22.189,-11.156l-0.426,-0.286c-0.215,-0.146 -0.435,-0.282 -0.644,-0.436c-0.359,-0.266 -0.699,-0.569 -1.05,-0.846c-0.343,-0.262 -0.687,-0.521 -1.036,-0.775c-1.65,-1.166 -3.396,-2.206 -5.298,-2.91c-1.229,-0.455 -2.517,-0.765 -3.827,-0.857c-0.588,-0.041 -1.178,-0.039 -1.765,0.006c-3.312,0.253 -6.34,1.892 -8.956,3.844c-0.559,0.417 -1.102,0.854 -1.632,1.306c-0.687,0.586 -1.359,1.193 -2.003,1.827c-0.072,0.071 -0.18,0.296 -0.231,0.383c-0.198,0.339 -0.388,0.682 -0.57,1.03c-0.698,1.342 -1.246,2.763 -1.663,4.216c-1.458,5.078 -1.223,10.677 0.949,15.518c0.61,1.359 1.372,2.646 2.26,3.842c0.844,1.136 1.805,2.179 2.852,3.132c0.867,0.789 1.795,1.514 2.72,2.232c2.082,1.618 4.25,3.126 6.476,4.539c4.315,2.739 8.851,5.121 13.512,7.214c5.598,2.513 11.382,4.613 17.266,6.353c8.136,2.406 16.463,4.154 24.869,5.292c6.324,0.857 12.693,1.374 19.072,1.541c8.716,0.229 17.453,-0.185 26.098,-1.325c5.196,-0.686 10.359,-1.634 15.448,-2.886c2.183,-0.536 4.351,-1.126 6.503,-1.775c13.55,-4.083 26.598,-10.546 37.093,-20.154c4.66,-4.266 8.756,-9.141 12.099,-14.506c2.107,-3.382 3.9,-6.957 5.382,-10.655c3.637,-9.072 5.29,-18.885 5.422,-28.634c0.07,-5.154 -0.31,-10.33 -1.326,-15.387c-1.044,-5.194 -2.753,-10.254 -5.204,-14.956c-1.584,-3.038 -3.463,-5.924 -5.599,-8.604c-2.579,-3.235 -5.505,-6.184 -8.674,-8.843c-4.342,-3.645 -9.109,-6.762 -14.075,-9.489c-4.902,-2.691 -10.001,-5.011 -15.19,-7.089c-6.354,-2.545 -12.845,-4.729 -19.384,-6.745c-9.44,-2.91 -18.988,-5.454 -28.499,-8.116c-1.854,-0.522 -3.706,-1.048 -5.556,-1.581c-6.198,-1.806 -12.379,-3.689 -18.436,-5.93c-5.035,-1.863 -10,-3.963 -14.707,-6.553c-6.576,-3.62 -12.79,-8.327 -16.912,-14.702c-0.699,-1.082 -1.336,-2.203 -1.901,-3.36c-1.276,-2.613 -2.172,-5.404 -2.682,-8.266c-0.514,-2.886 -0.626,-5.841 -0.417,-8.763c0.063,-0.873 0.153,-1.744 0.269,-2.611c0.065,-0.488 0.131,-0.979 0.221,-1.462c0.249,-1.343 0.594,-2.676 0.985,-3.984c1.427,-4.782 3.701,-9.291 6.805,-13.206c2.005,-2.529 4.338,-4.794 6.901,-6.755c2.536,-1.941 5.292,-3.583 8.176,-4.95c5.58,-2.647 11.619,-4.253 17.716,-5.145c9.052,-1.325 18.304,-1.122 27.363,0.025c3.602,0.456 7.186,1.07 10.737,1.832c4.86,1.043 9.665,2.354 14.374,3.947c5.053,1.709 10.009,3.737 14.758,6.173c1.389,0.712 2.76,1.46 4.108,2.248c0.524,0.307 1.044,0.619 1.561,0.938c0.167,0.103 0.823,0.511 0.929,0.582c0.357,0.24 0.698,0.503 1.056,0.743c0.275,0.179 0.553,0.353 0.834,0.522c0.904,0.529 1.841,0.994 2.823,1.36c1.565,0.584 3.228,0.914 4.9,0.931c0.898,0.009 1.796,-0.071 2.679,-0.236c0.704,-0.132 1.397,-0.318 2.073,-0.553c5.606,-1.947 9.872,-7.186 10.771,-13.034c0.42,-2.729 0.07,-5.54 -0.954,-8.101c-0.714,-1.785 -1.722,-3.441 -2.919,-4.942c-0.844,-1.057 -1.778,-2.04 -2.775,-2.953c-0.457,-0.42 -0.923,-0.839 -1.413,-1.22c-1.15,-0.895 -2.34,-1.743 -3.542,-2.566c-3.376,-2.312 -6.916,-4.382 -10.566,-6.228c-6.971,-3.523 -14.34,-6.233 -21.878,-8.259c-8.716,-2.343 -17.676,-3.764 -26.679,-4.355c-2.282,-0.149 -4.567,-0.238 -6.854,-0.284c-1.143,-0.018 -2.285,-0.025 -3.429,-0.021Z" style="fill:#dcb044;"/><path d="M716.843,39.966c-3.428,0.031 -6.853,0.161 -10.272,0.426c-11.65,0.904 -23.236,3.232 -34.212,7.271c-9.458,3.481 -18.506,8.272 -26.346,14.64c-4.174,3.39 -7.994,7.224 -11.284,11.48c-2.525,3.266 -4.732,6.773 -6.574,10.468c-2.72,5.456 -4.601,11.313 -5.668,17.312c-0.235,1.323 -0.439,2.655 -0.59,3.99c-0.09,0.801 -0.164,1.605 -0.234,2.409c-0.153,1.757 -0.261,3.518 -0.319,5.281c-0.223,6.772 0.276,13.598 1.897,20.191c0.696,2.833 1.601,5.615 2.721,8.309c1.618,3.892 3.707,7.592 6.201,10.99c3.03,4.127 6.632,7.816 10.594,11.052c4.416,3.606 9.242,6.679 14.265,9.365c5.931,3.173 12.137,5.813 18.439,8.155c7.52,2.794 15.193,5.16 22.895,7.394c6.18,1.793 12.383,3.499 18.574,5.251c1.821,0.519 3.64,1.043 5.459,1.571c4.131,1.216 8.253,2.466 12.337,3.835c3.349,1.122 6.674,2.319 9.949,3.642c1.839,0.743 3.662,1.525 5.462,2.359c1.255,0.581 2.499,1.187 3.728,1.823c6.508,3.37 12.72,7.625 17.376,13.357c0.733,0.902 1.424,1.84 2.067,2.808c0.72,1.085 1.382,2.211 1.974,3.371c0.9,1.764 1.647,3.604 2.223,5.499c0.512,1.683 0.89,3.402 1.145,5.143c0.081,0.552 0.147,1.105 0.203,1.66c0.038,0.378 0.07,0.682 0.067,1.082c-0.004,0.454 -0.067,0.956 -0.12,1.407c-0.113,0.962 -0.25,1.921 -0.409,2.876c-0.565,3.397 -1.438,6.748 -2.668,9.966c-1.962,5.131 -4.842,9.897 -8.569,13.94c-4.646,5.041 -10.486,8.854 -16.809,11.453c-4.711,1.936 -9.665,3.237 -14.689,4.052c-5.201,0.844 -10.476,1.174 -15.742,1.134c-8.029,-0.061 -16.038,-0.991 -23.915,-2.514c-4.88,-0.944 -9.715,-2.133 -14.481,-3.543c-4.009,-1.186 -7.974,-2.525 -11.874,-4.031c-7.734,-2.986 -15.253,-6.597 -22.189,-11.156l-0.426,-0.286c-0.215,-0.146 -0.435,-0.282 -0.644,-0.436c-0.359,-0.266 -0.699,-0.569 -1.05,-0.846c-0.343,-0.262 -0.688,-0.521 -1.036,-0.775c-1.65,-1.166 -3.396,-2.206 -5.298,-2.91c-1.229,-0.455 -2.517,-0.765 -3.827,-0.857c-0.588,-0.041 -1.178,-0.039 -1.765,0.006c-3.312,0.253 -6.34,1.892 -8.957,3.844c-0.558,0.417 -1.101,0.854 -1.631,1.306c-0.687,0.586 -1.359,1.193 -2.003,1.827c-0.072,0.071 -0.18,0.296 -0.231,0.383c-0.199,0.339 -0.389,0.682 -0.57,1.03c-0.698,1.342 -1.246,2.763 -1.663,4.216c-1.458,5.078 -1.223,10.677 0.949,15.518c0.61,1.359 1.372,2.646 2.26,3.842c0.844,1.136 1.805,2.179 2.852,3.132c0.867,0.789 1.794,1.514 2.72,2.232c2.082,1.618 4.25,3.126 6.476,4.539c4.315,2.739 8.851,5.121 13.512,7.214c5.598,2.513 11.382,4.613 17.266,6.353c8.136,2.406 16.463,4.154 24.869,5.292c6.324,0.857 12.693,1.374 19.072,1.541c8.716,0.229 17.453,-0.185 26.098,-1.325c5.196,-0.686 10.359,-1.634 15.448,-2.886c2.182,-0.536 4.351,-1.126 6.503,-1.775c13.55,-4.083 26.598,-10.546 37.093,-20.154c4.66,-4.266 8.756,-9.141 12.099,-14.506c2.107,-3.382 3.9,-6.957 5.382,-10.655c3.637,-9.072 5.29,-18.885 5.422,-28.634c0.07,-5.154 -0.31,-10.33 -1.327,-15.387c-1.043,-5.194 -2.752,-10.254 -5.203,-14.956c-1.584,-3.038 -3.464,-5.924 -5.599,-8.604c-2.579,-3.235 -5.506,-6.184 -8.674,-8.843c-4.343,-3.645 -9.11,-6.762 -14.075,-9.489c-4.902,-2.691 -10.001,-5.011 -15.19,-7.089c-6.354,-2.545 -12.845,-4.729 -19.384,-6.745c-9.44,-2.91 -18.988,-5.454 -28.499,-8.116c-1.854,-0.522 -3.706,-1.048 -5.556,-1.581c-6.198,-1.806 -12.38,-3.689 -18.436,-5.93c-5.035,-1.863 -10,-3.963 -14.707,-6.553c-5.8,-3.193 -11.297,-7.206 -15.355,-12.498c-0.624,-0.813 -1.212,-1.653 -1.76,-2.519c-0.621,-0.983 -1.188,-2.001 -1.699,-3.045c-1.275,-2.613 -2.172,-5.404 -2.681,-8.266c-0.515,-2.886 -0.626,-5.841 -0.417,-8.763c0.063,-0.873 0.153,-1.744 0.269,-2.611c0.065,-0.488 0.13,-0.979 0.22,-1.462c0.25,-1.343 0.595,-2.676 0.985,-3.984c1.428,-4.782 3.701,-9.291 6.805,-13.206c2.006,-2.529 4.339,-4.794 6.902,-6.755c2.536,-1.941 5.292,-3.583 8.176,-4.95c5.58,-2.647 11.619,-4.253 17.716,-5.145c9.052,-1.325 18.304,-1.122 27.363,0.025c3.602,0.456 7.186,1.07 10.737,1.832c4.86,1.043 9.665,2.354 14.374,3.947c5.053,1.709 10.009,3.737 14.758,6.173c1.389,0.712 2.76,1.46 4.108,2.248c0.524,0.307 1.044,0.619 1.561,0.938c0.167,0.103 0.822,0.511 0.929,0.582c0.357,0.24 0.698,0.503 1.056,0.743c0.275,0.179 0.552,0.353 0.834,0.522c0.904,0.529 1.841,0.994 2.823,1.36c1.565,0.584 3.227,0.914 4.9,0.931c0.898,0.009 1.796,-0.071 2.679,-0.236c0.704,-0.132 1.396,-0.318 2.073,-0.553c5.606,-1.947 9.872,-7.186 10.771,-13.034c0.42,-2.728 0.069,-5.54 -0.955,-8.101c-0.713,-1.785 -1.721,-3.441 -2.919,-4.942c-0.843,-1.057 -1.777,-2.04 -2.774,-2.953c-0.457,-0.42 -0.923,-0.839 -1.413,-1.22c-1.151,-0.895 -2.34,-1.743 -3.542,-2.566c-3.376,-2.312 -6.916,-4.382 -10.567,-6.228c-6.97,-3.523 -14.339,-6.233 -21.877,-8.259c-8.716,-2.343 -17.676,-3.764 -26.679,-4.355c-2.282,-0.149 -4.567,-0.238 -6.854,-0.284c-1.143,-0.018 -2.286,-0.025 -3.429,-0.021Z" style="fill:#dcb044;"/><path d="M1061.14,51.183c-4.448,0.025 -8.931,1.493 -12.416,4.285c-0.83,0.665 -1.605,1.399 -2.309,2.197c-1.148,1.301 -2.098,2.77 -2.833,4.34c-1.362,2.905 -1.923,6.1 -1.978,9.291c-0.205,48.055 0.517,96.113 -0.009,144.165c-0.052,3.544 -0.322,7.083 -0.863,10.587c-0.79,5.118 -2.152,10.154 -4.128,14.942c-2.675,6.482 -6.476,12.482 -11.21,17.656c-3.614,3.949 -7.747,7.411 -12.228,10.337c-6.345,4.141 -13.371,7.2 -20.661,9.237c-5.172,1.446 -10.481,2.383 -15.83,2.845c-3.962,0.342 -7.949,0.417 -11.921,0.236c-2.839,-0.13 -5.672,-0.392 -8.487,-0.784c-2.247,-0.314 -4.482,-0.711 -6.7,-1.191c-13.724,-2.972 -26.932,-9.265 -37.133,-19.023c-1.53,-1.463 -2.989,-2.998 -4.365,-4.606c-1.854,-2.165 -3.563,-4.454 -5.099,-6.856c-2.201,-3.443 -4.054,-7.108 -5.513,-10.925c-1.754,-4.586 -2.948,-9.382 -3.593,-14.248c-0.363,-2.738 -0.551,-5.495 -0.594,-8.256c-0.559,-48.04 0.38,-96.087 -0.009,-144.128c-0.02,-1.23 -0.097,-2.454 -0.263,-3.673c-0.376,-2.749 -1.209,-5.471 -2.638,-7.861c-0.851,-1.424 -1.902,-2.72 -3.13,-3.836c-0.693,-0.63 -1.442,-1.198 -2.231,-1.701c-7.07,-4.503 -17.097,-3.634 -23.327,1.96c-1.13,1.015 -2.131,2.168 -2.966,3.438c-1.101,1.676 -1.905,3.53 -2.437,5.461c-0.559,2.032 -0.792,4.132 -0.828,6.234c-0.407,47.973 -0.195,95.95 0,143.924c0.03,3.706 0.207,7.408 0.565,11.097c0.661,6.818 1.938,13.584 3.894,20.151c2.367,7.944 5.75,15.582 10.109,22.635c4.257,6.89 9.442,13.191 15.332,18.747c2.15,2.027 4.395,3.956 6.72,5.781c15.3,12.002 33.864,19.416 52.966,22.624c3.476,0.584 6.976,1.03 10.487,1.337c4.183,0.365 8.382,0.539 12.581,0.518c5.521,-0.028 11.04,-0.387 16.517,-1.084c7.39,-0.94 14.705,-2.496 21.826,-4.686c10.269,-3.159 20.137,-7.652 29.14,-13.528c10.649,-6.951 20.024,-15.905 27.164,-26.447c3.447,-5.089 6.385,-10.516 8.758,-16.186c3.097,-7.397 5.236,-15.178 6.495,-23.095c0.939,-5.908 1.38,-11.883 1.429,-17.864c0.195,-47.99 0.192,-95.981 0.001,-143.971c-0.038,-2.363 -0.293,-4.727 -0.924,-7.011c-0.863,-3.123 -2.432,-6.06 -4.786,-8.312c-0.831,-0.796 -1.746,-1.5 -2.725,-2.104c-1.227,-0.757 -2.552,-1.345 -3.926,-1.779c-1.766,-0.557 -3.61,-0.825 -5.459,-0.868c-0.233,-0.002 -0.232,-0.002 -0.465,-0.002Z" style="fill:#dcb044;"/><path d="M1145.53,52.523c-2.206,0.012 -4.4,0.345 -6.481,1.095c-2.785,1.004 -5.281,2.728 -7.173,5.008c-1.193,1.438 -2.124,3.093 -2.768,4.845c-0.717,1.952 -1.058,4.007 -1.123,6.081c-1.159,74.994 -1.196,150.015 0,225.009c0.067,2.093 0.436,4.164 1.191,6.122c1.225,3.179 3.39,5.955 6.204,7.883c1.281,0.878 2.68,1.569 4.147,2.077c1.849,0.639 3.802,0.938 5.754,0.969c49.632,0.525 99.27,0.374 148.903,0c1.076,-0.017 2.149,-0.071 3.219,-0.187c3.203,-0.348 6.387,-1.233 9.167,-2.89c1.443,-0.859 2.76,-1.927 3.887,-3.173c0.768,-0.85 1.449,-1.786 2.02,-2.78c0.505,-0.881 0.932,-1.803 1.279,-2.758c2.418,-6.65 0.767,-14.544 -4.019,-19.731c-2.403,-2.603 -5.539,-4.429 -8.939,-5.388c-2.279,-0.643 -4.637,-0.906 -7.001,-0.915l-120.282,0c-0.278,-0.017 -0.558,-0.017 -0.834,-0.051c-0.554,-0.067 -1.098,-0.201 -1.62,-0.399c-1.839,-0.697 -3.321,-2.179 -4.018,-4.017c-0.198,-0.522 -0.332,-1.066 -0.399,-1.621c-0.034,-0.276 -0.034,-0.556 -0.051,-0.834l0,-59.162c0.017,-0.278 0.017,-0.558 0.051,-0.834c0.067,-0.554 0.201,-1.098 0.399,-1.62c0.697,-1.839 2.179,-3.321 4.018,-4.018c0.522,-0.198 1.066,-0.332 1.62,-0.399c0.276,-0.034 0.556,-0.034 0.834,-0.051c33.238,0 66.478,0.274 99.715,-0.003c1.966,-0.032 3.928,-0.246 5.832,-0.751c1.581,-0.42 3.113,-1.033 4.528,-1.857c1.531,-0.892 2.909,-2.03 4.083,-3.356c1.953,-2.205 3.28,-4.915 4.002,-7.76c1.559,-6.141 0.289,-13.12 -3.873,-17.985c-0.517,-0.604 -1.083,-1.167 -1.681,-1.69c-0.896,-0.782 -1.881,-1.466 -2.925,-2.035c-2.123,-1.155 -4.468,-1.856 -6.86,-2.17c-1.143,-0.15 -2.291,-0.213 -3.443,-0.218l-99.378,0c-0.278,-0.016 -0.558,-0.016 -0.834,-0.05c-0.554,-0.067 -1.098,-0.201 -1.62,-0.399c-1.839,-0.698 -3.321,-2.179 -4.018,-4.018c-0.198,-0.522 -0.332,-1.066 -0.399,-1.62c-0.034,-0.276 -0.034,-0.556 -0.051,-0.834l0,-59.164c0.017,-0.278 0.017,-0.558 0.051,-0.834c0.067,-0.554 0.201,-1.098 0.399,-1.62c0.697,-1.839 2.179,-3.321 4.018,-4.018c0.522,-0.198 1.066,-0.332 1.62,-0.399c0.276,-0.034 0.556,-0.034 0.834,-0.051c38.086,0 76.178,0.626 114.259,-0.006c1.987,-0.059 3.967,-0.293 5.888,-0.818c1.834,-0.502 3.601,-1.255 5.205,-2.28c1.382,-0.884 2.632,-1.968 3.707,-3.207c5.577,-6.424 6.074,-16.718 1.13,-23.643c-0.547,-0.766 -1.16,-1.483 -1.827,-2.147c-1.002,-0.999 -2.142,-1.865 -3.366,-2.574c-2.127,-1.233 -4.488,-2.005 -6.909,-2.404c-1.26,-0.208 -2.532,-0.306 -3.807,-0.343c-47.416,-0.771 -94.843,-0.007 -142.265,-0.007Z" style="fill:#dcb044;"/></g></svg>